<svg version="1.1" baseProfile="full" xmlns="http://www.w3.org/2000/svg" width="1259.2218017578125" height="186.20928955078125"><defs id="SvgjsDefs4081"></defs><g id="SvgjsG4082" featurekey="root" fill="#ffffff" transform="matrix(1,0,0,1,0,0)"></g><g id="SvgjsG4083" featurekey="symbol1" fill="#2c3e50" transform="matrix(4.288310657337924,0,0,4.288310657337924,864.1096227681443,-114.21503300227289)"><polygon points="12.8,68.8 52.8,68.8 32.8,39.8 "></polygon><polygon points="86.2,68.8 55.8,68.8 42.7,49.7 57.9,27.8 "></polygon></g><g id="SvgjsG4084" featurekey="text1" fill="#2c3e50" transform="matrix(4.8648635482513,0,0,4.8648635482513,-2.8810772315538014,32.67568689823892)"><path d="M8.36 5 c1.58 0 2.88 0.46 3.84 1.36 c0.98 0.92 1.46 2.16 1.46 3.66 c0 1.52 -0.48 2.74 -1.46 3.66 c-0.96 0.9 -2.26 1.34 -3.84 1.34 l-3.82 0 l0 4.08 c0 0.38 -0.32 0.7 -0.7 0.7 l-1.52 0 c-0.38 0 -0.7 -0.32 -0.7 -0.7 l0 -6.2 c0 -0.38 0.32 -0.7 0.7 -0.7 l5.92 0 c0.88 0 1.52 -0.18 1.92 -0.58 c0.4 -0.36 0.58 -0.9 0.58 -1.6 s-0.18 -1.22 -0.58 -1.6 s-1.04 -0.58 -1.92 -0.58 l-5.92 0 c-0.38 0 -0.7 -0.32 -0.7 -0.7 l0 -1.44 c0 -0.38 0.32 -0.7 0.7 -0.7 l6.04 0 z M34.63404329427083 5 c0.4 0 0.7 0.32 0.7 0.7 l0 1.44 c0 0.38 -0.3 0.7 -0.7 0.7 l-7.56 0 l0 3.06 l6.68 0 c0.4 0 0.7 0.32 0.7 0.7 l0 1.46 c0 0.38 -0.3 0.7 -0.7 0.7 l-6.68 0 l0 3.08 l7.56 0 c0.4 0 0.7 0.32 0.7 0.7 l0 1.44 c0 0.38 -0.3 0.7 -0.7 0.7 l-9.76 0 c-0.38 0 -0.7 -0.32 -0.7 -0.7 l0 -13.28 c0 -0.38 0.32 -0.7 0.7 -0.7 l9.76 0 z M53.58808658854167 5.42 l5.6 13.22 c0.06 0.1 0.1 0.22 0.1 0.34 c0 0.38 -0.3 0.7 -0.7 0.7 l0 0 l-1.66 0 c-0.28 0 -0.54 -0.16 -0.64 -0.42 l-1.46 -3.44 l-5.66 0 l-1.44 3.44 c-0.1 0.26 -0.36 0.42 -0.64 0.42 l-1.66 0 c-0.24 0 -0.46 -0.12 -0.58 -0.32 c-0.14 -0.18 -0.16 -0.44 -0.06 -0.64 l5.64 -13.3 c0.1 -0.26 0.36 -0.42 0.64 -0.42 l1.88 0 c0.28 0 0.54 0.16 0.64 0.42 z M52.008086588541666 9.06 l-1.66 3.98 l3.32 0 z M76.46212988281249 10.58 l5.62 8 c0.16 0.22 0.18 0.5 0.06 0.72 c-0.12 0.24 -0.36 0.38 -0.62 0.38 l-1.9 0 c-0.22 0 -0.44 -0.12 -0.56 -0.3 l-4.74 -6.82 l-1.94 1.82 l0 4.6 c0 0.38 -0.32 0.7 -0.7 0.7 l-1.5 0 c-0.38 0 -0.7 -0.32 -0.7 -0.7 l0 -13.28 c0 -0.38 0.32 -0.7 0.7 -0.7 l1.5 0 c0.38 0 0.7 0.32 0.7 0.7 l0 4.76 l5.62 -5.28 c0.12 -0.12 0.3 -0.18 0.48 -0.18 l2.12 0 c0.28 0 0.54 0.18 0.64 0.44 c0.12 0.26 0.04 0.56 -0.16 0.76 z M94.43617317708333 5 c0.38 0 0.7 0.32 0.7 0.7 l0 13.4 c0 0.38 -0.32 0.7 -0.7 0.7 l-1.52 0 c-0.38 0 -0.7 -0.32 -0.7 -0.7 l0 -13.4 c0 -0.38 0.32 -0.7 0.7 -0.7 l1.52 0 z M101.73617317708333 16.94 c0.4 0 0.7 0.32 0.7 0.7 l0 1.46 c0 0.38 -0.3 0.7 -0.7 0.7 l-4.66 0 c-0.4 0 -0.7 -0.32 -0.7 -0.7 l0 -1.46 c0 -0.38 0.3 -0.7 0.7 -0.7 l4.66 0 z M123.31021647135417 5 c0.4 0 0.7 0.32 0.7 0.7 l0 1.44 c0 0.38 -0.3 0.7 -0.7 0.7 l-7.56 0 l0 3.06 l6.68 0 c0.4 0 0.7 0.32 0.7 0.7 l0 1.46 c0 0.38 -0.3 0.7 -0.7 0.7 l-6.68 0 l0 3.08 l7.56 0 c0.4 0 0.7 0.32 0.7 0.7 l0 1.44 c0 0.38 -0.3 0.7 -0.7 0.7 l-9.76 0 c-0.38 0 -0.7 -0.32 -0.7 -0.7 l0 -13.28 c0 -0.38 0.32 -0.7 0.7 -0.7 l9.76 0 z M146.544259765625 5 c0.22 0 0.44 0.12 0.58 0.3 c0.12 0.2 0.16 0.44 0.06 0.66 l-5.38 13.28 c-0.1 0.26 -0.36 0.44 -0.64 0.44 l-1.72 0 c-0.3 0 -0.54 -0.18 -0.66 -0.44 l-5.38 -13.28 c-0.08 -0.22 -0.06 -0.46 0.08 -0.66 c0.12 -0.18 0.34 -0.3 0.58 -0.3 l1.64 0 c0.28 0 0.54 0.18 0.64 0.44 l3.96 9.94 l3.94 -9.94 c0.12 -0.26 0.36 -0.44 0.66 -0.44 l1.64 0 z M167.85830305989583 5 c0.4 0 0.7 0.32 0.7 0.7 l0 1.44 c0 0.38 -0.3 0.7 -0.7 0.7 l-7.56 0 l0 3.06 l6.68 0 c0.4 0 0.7 0.32 0.7 0.7 l0 1.46 c0 0.38 -0.3 0.7 -0.7 0.7 l-6.68 0 l0 3.08 l7.56 0 c0.4 0 0.7 0.32 0.7 0.7 l0 1.44 c0 0.38 -0.3 0.7 -0.7 0.7 l-9.76 0 c-0.38 0 -0.7 -0.32 -0.7 -0.7 l0 -13.28 c0 -0.38 0.32 -0.7 0.7 -0.7 l9.76 0 z M188.89234635416665 16.84 c0.4 0 0.7 0.32 0.7 0.7 l0 1.44 c0 0.38 -0.3 0.7 -0.7 0.7 l-8.74 0 c-0.38 0 -0.7 -0.32 -0.7 -0.7 l0 -13.28 c0 -0.38 0.32 -0.7 0.7 -0.7 l1.5 0 c0.38 0 0.7 0.32 0.7 0.7 l0 11.14 l6.54 0 z"></path></g></svg>