<?xml version="1.0" standalone="no"?>
<!DOCTYPE svg PUBLIC "-//W3C//DTD SVG 20010904//EN"
 "http://www.w3.org/TR/2001/REC-SVG-20010904/DTD/svg10.dtd">
<svg version="1.0" xmlns="http://www.w3.org/2000/svg"
 width="1460.000000pt" height="1460.000000pt" viewBox="0 0 1460.000000 1460.000000"
 preserveAspectRatio="xMidYMid meet">
<metadata>
Created by potrace 1.11, written by Peter Selinger 2001-2013
</metadata>
<g transform="translate(0.000000,1460.000000) scale(0.100000,-0.100000)"
fill="#000000" stroke="none">
<path d="M8695 10764 c-16 -25 -37 -56 -45 -69 -8 -13 -66 -97 -129 -187 -63
-89 -128 -183 -145 -208 -17 -25 -37 -51 -43 -58 -7 -7 -13 -17 -13 -22 0 -5
-6 -15 -13 -22 -8 -7 -26 -33 -42 -57 -15 -25 -36 -53 -46 -64 -10 -12 -21
-29 -25 -39 -3 -10 -10 -18 -15 -18 -5 0 -9 -5 -9 -11 0 -9 -42 -72 -60 -89
-3 -3 -9 -12 -15 -21 -13 -21 -23 -35 -216 -314 -91 -132 -200 -289 -242 -350
-42 -60 -80 -115 -84 -120 -4 -6 -28 -39 -53 -75 -24 -36 -60 -87 -79 -115
-19 -27 -48 -70 -65 -95 -16 -25 -32 -47 -35 -50 -4 -3 -24 -32 -47 -65 -60
-89 -136 -199 -204 -295 -34 -47 -63 -93 -67 -102 -3 -10 -9 -18 -14 -18 -5 0
-16 -15 -25 -32 -9 -18 -20 -35 -24 -38 -9 -7 -133 -186 -145 -210 -5 -11 -13
-20 -17 -20 -5 0 -8 -7 -8 -15 0 -8 -4 -15 -8 -15 -4 0 -16 -15 -27 -32 -10
-18 -23 -37 -28 -43 -24 -29 -187 -267 -187 -275 0 -4 -4 -10 -8 -12 -4 -1
-37 -46 -72 -98 -36 -52 -67 -97 -70 -100 -3 -3 -28 -39 -55 -80 -28 -41 -53
-77 -56 -80 -3 -3 -25 -34 -49 -70 -24 -36 -46 -67 -49 -70 -3 -3 -12 -15 -19
-28 -11 -20 -10 -27 10 -55 12 -18 26 -33 30 -35 4 -2 8 -7 8 -12 0 -5 56 -90
125 -189 69 -100 125 -185 125 -190 0 -5 4 -11 8 -13 5 -1 48 -61 97 -133 49
-71 96 -140 104 -151 24 -33 59 -84 93 -139 7 -11 16 -22 19 -25 12 -11 69
-99 69 -107 0 -4 9 -14 20 -21 11 -7 20 -19 20 -26 0 -8 6 -21 13 -28 14 -14
56 -72 72 -99 17 -29 176 -261 217 -316 21 -29 38 -55 38 -58 0 -3 5 -11 11
-18 10 -12 223 -320 339 -493 36 -53 71 -102 78 -109 6 -8 12 -17 12 -22 0 -4
10 -20 23 -34 24 -27 43 -56 54 -79 4 -8 9 -17 13 -20 4 -3 48 -66 99 -140 51
-74 110 -161 132 -192 21 -31 39 -62 39 -67 0 -6 4 -11 9 -11 5 0 24 -25 42
-55 18 -30 37 -55 41 -55 4 0 8 -4 8 -10 0 -5 14 -29 30 -52 17 -24 38 -54 48
-68 9 -14 19 -27 22 -30 4 -3 9 -12 13 -20 4 -8 39 -62 80 -120 l73 -105 2605
0 2605 0 -11 22 c-5 13 -13 23 -17 23 -5 0 -8 6 -8 14 0 8 -3 16 -7 18 -8 3
-32 37 -128 178 -31 47 -60 87 -63 90 -4 3 -11 13 -17 22 -13 22 -103 155
-220 323 -50 72 -120 173 -156 225 -36 52 -83 120 -104 150 -21 30 -54 78 -72
105 -17 28 -36 55 -41 60 -5 6 -17 24 -28 40 -10 17 -21 32 -24 35 -3 3 -32
46 -65 95 -33 50 -62 92 -65 95 -4 3 -44 61 -91 130 -46 69 -87 127 -91 128
-5 2 -8 10 -8 17 0 7 -3 15 -7 17 -5 2 -21 23 -38 48 -16 25 -33 50 -38 55
-15 20 -134 192 -197 285 -36 52 -67 97 -70 100 -3 3 -9 13 -15 22 -26 44
-160 233 -167 236 -4 2 -8 10 -8 17 0 7 -3 15 -8 17 -4 2 -47 62 -95 133 -49
72 -124 182 -168 245 -44 63 -97 140 -117 170 -20 30 -41 60 -47 66 -5 7 -39
55 -75 108 -106 158 -218 319 -240 346 -11 14 -20 29 -20 33 0 5 -6 14 -12 21
-7 8 -19 22 -26 32 -38 57 -213 311 -219 319 -4 6 -37 53 -72 105 -36 52 -68
97 -73 98 -4 2 -8 9 -8 16 0 7 -9 21 -20 31 -11 10 -20 24 -20 32 0 7 -7 16
-15 19 -8 4 -15 10 -15 15 0 8 -114 175 -149 219 -12 14 -21 31 -21 38 0 6 -4
12 -10 12 -5 0 -10 5 -10 10 0 6 -9 20 -20 32 -11 12 -20 28 -20 35 0 7 -4 13
-9 13 -5 0 -21 20 -35 44 -14 25 -32 51 -39 58 -6 8 -18 23 -25 33 -7 11 -21
34 -32 50 -10 17 -23 35 -27 40 -5 6 -47 66 -93 135 -47 69 -88 127 -91 130
-3 3 -30 41 -59 85 -29 44 -57 82 -62 83 -4 2 -8 9 -8 16 0 7 -8 21 -19 32
-10 11 -24 30 -30 43 -7 12 -19 30 -26 39 -14 17 -122 173 -420 607 -38 55
-73 102 -77 103 -4 2 -8 7 -8 12 0 7 -165 251 -203 301 -7 8 -16 23 -22 31
-23 36 -95 141 -172 251 -46 65 -83 122 -83 127 0 6 -3 10 -8 10 -4 0 -18 18
-32 40 -14 22 -29 40 -35 40 -5 0 -23 -21 -40 -46z"/>
<path d="M4383 8693 c-20 -32 -40 -60 -43 -63 -3 -3 -17 -23 -32 -45 -40 -61
-266 -389 -275 -400 -4 -6 -42 -60 -83 -120 -40 -61 -78 -111 -82 -113 -4 -2
-8 -8 -8 -12 0 -11 -141 -214 -152 -218 -4 -2 -8 -8 -8 -13 0 -7 -56 -95 -70
-109 -16 -16 -70 -100 -70 -109 0 -6 -5 -11 -10 -11 -6 0 -15 -11 -20 -25 -5
-14 -14 -25 -20 -25 -6 0 -8 -5 -5 -10 3 -6 -1 -13 -9 -16 -9 -3 -16 -10 -16
-14 0 -9 -381 -565 -409 -597 -6 -7 -11 -15 -11 -19 0 -3 -8 -16 -17 -29 -10
-12 -24 -32 -32 -43 -28 -40 -260 -378 -303 -440 -24 -35 -47 -69 -53 -76 -5
-6 -14 -19 -20 -28 -5 -9 -32 -48 -60 -88 -27 -40 -54 -79 -60 -88 -5 -10 -12
-19 -15 -22 -5 -5 -59 -83 -109 -159 -13 -20 -27 -38 -30 -41 -3 -3 -10 -13
-16 -22 -29 -48 -180 -263 -187 -266 -4 -2 -8 -8 -8 -12 0 -11 -92 -144 -102
-148 -4 -2 -8 -10 -8 -18 0 -8 -4 -14 -10 -14 -5 0 -10 -6 -10 -12 -1 -7 -14
-29 -30 -48 -17 -19 -30 -40 -30 -47 0 -6 -6 -16 -12 -20 -17 -11 -58 -69 -58
-83 0 -5 -4 -10 -8 -10 -4 0 -16 -15 -27 -32 -10 -18 -23 -37 -27 -43 -36 -45
-78 -107 -78 -113 0 -4 -11 -19 -25 -34 -14 -15 -25 -30 -25 -33 0 -4 -27 -44
-60 -91 -33 -46 -60 -88 -60 -93 0 -5 -4 -11 -8 -13 -7 -2 -194 -268 -242
-343 -36 -55 -115 -170 -120 -175 -3 -3 -20 -28 -37 -55 -18 -28 -41 -60 -53
-73 -11 -12 -18 -22 -14 -22 4 0 -2 -10 -13 -22 -11 -13 -28 -38 -39 -55 -10
-18 -22 -33 -26 -33 -4 0 -8 -7 -8 -15 0 -8 -5 -15 -12 -15 -6 0 -8 -3 -4 -7
12 -12 6855 -10 6848 2 -8 15 -174 258 -274 401 -49 69 -88 130 -88 134 0 5
-6 13 -12 17 -7 4 -17 16 -23 25 -5 10 -46 69 -90 133 -44 64 -84 124 -90 133
-5 9 -14 22 -20 28 -10 12 -66 93 -157 227 -27 38 -48 73 -48 78 0 4 -4 9 -8
11 -8 3 -53 66 -224 318 -39 58 -74 107 -77 110 -3 3 -10 13 -16 22 -24 40
-200 295 -216 314 -11 11 -19 26 -19 32 0 7 -4 12 -10 12 -5 0 -10 6 -10 13 0
7 -9 19 -19 27 -11 7 -18 16 -16 20 2 3 -21 38 -51 78 -30 40 -54 76 -54 80 0
4 -14 23 -30 42 -16 19 -30 40 -30 47 0 6 -4 13 -8 15 -4 2 -37 46 -72 98 -36
52 -68 97 -72 98 -5 2 -8 10 -8 18 0 8 -4 14 -8 14 -4 0 -16 15 -27 33 -10 17
-65 99 -122 180 -57 82 -103 153 -103 157 0 5 -4 10 -8 12 -5 2 -28 32 -52 68
-24 36 -47 67 -52 68 -4 2 -8 8 -8 14 0 6 -13 27 -30 48 -16 21 -30 42 -30 48
0 6 -3 12 -7 14 -5 2 -28 32 -53 68 -24 36 -48 67 -52 68 -4 2 -8 10 -8 17 0
8 -6 20 -13 27 -24 25 -127 176 -127 187 0 6 -4 11 -8 11 -5 0 -24 23 -42 52
-42 64 -212 311 -220 318 -3 3 -9 13 -15 22 -15 27 -178 262 -184 268 -3 3
-10 13 -16 22 -5 9 -37 56 -71 105 -33 48 -82 120 -109 158 -26 39 -87 126
-134 195 -47 69 -89 127 -93 128 -4 2 -8 10 -8 17 0 7 -3 15 -7 17 -5 2 -20
22 -36 46 -15 23 -31 42 -37 42 -5 0 -26 -26 -47 -57z"/>
</g>
</svg>
